<svg width="130" height="65" viewBox="0 0 130 65" fill="none" xmlns="http://www.w3.org/2000/svg">
<g clip-path="url(#clip0)">
<path d="M10.6038 10.5975V35.5534C10.6038 35.8286 10.7779 36.0743 11.0386 36.1664L22.5309 40.1978C22.9551 40.3466 23.3994 40.0324 23.3994 39.5847V6.35358C23.3994 5.90119 22.9468 5.587 22.5215 5.7441L11.0291 9.98805C10.7732 10.0825 10.6038 10.3259 10.6038 10.5975ZM20.3403 36.0518L12.5752 34.071C12.2873 33.9978 12.0847 33.7379 12.0847 33.4414V12.8075C12.0847 12.5181 12.2767 12.263 12.5563 12.1827L20.4315 9.92191C20.8497 9.80143 21.2656 10.1156 21.2632 10.5491L21.1519 35.4258C21.1507 35.8475 20.7514 36.157 20.3403 36.0518Z" fill="#10A9B7"/>
<path d="M25.0605 6.35364V39.5836C25.0605 40.0313 25.5048 40.3455 25.9289 40.1966L37.4213 36.1653C37.6819 36.0743 37.8561 35.8287 37.8561 35.5523V10.5976C37.8561 10.3259 37.6867 10.0826 37.4308 9.98812L25.9384 5.74416C25.5119 5.58824 25.0605 5.90125 25.0605 6.35364ZM28.0272 9.92197L35.9036 12.1839C36.1832 12.2642 36.3751 12.5182 36.3751 12.8088V33.4427C36.3751 33.7392 36.1737 33.999 35.8846 34.0723L28.1196 36.0531C27.7085 36.1582 27.308 35.8499 27.3068 35.4271L27.1955 10.5504C27.1931 10.1157 27.6101 9.80149 28.0272 9.92197Z" fill="#10A9B7"/>
<path d="M8.70813 37.7962V9.8674C8.70813 9.60754 8.86452 9.37248 9.10385 9.26972L14.8962 6.80816C15.4318 6.58019 15.4223 5.82188 14.882 5.6069L0.893324 0.0482983C0.464434 -0.121791 0 0.192401 0 0.651878V64.3514C0 64.825 0.492868 65.1404 0.925313 64.9408L22.9622 54.7922C23.1933 54.6858 23.3402 54.4555 23.3402 54.2028V43.799C23.3402 43.5226 23.1648 43.2769 22.903 43.1859L9.14532 38.4105C8.88348 38.3195 8.70813 38.0726 8.70813 37.7962ZM3.52828 36.2465C3.09702 36.4426 2.60652 36.1272 2.60652 35.6548V31.5667C2.60652 31.1155 3.05555 30.8025 3.48088 30.9561C3.73798 31.0494 3.90977 31.2939 3.90977 31.5667V35.6548C3.90977 35.9099 3.76049 36.1414 3.52828 36.2465Z" fill="#10A9B7"/>
<path d="M61.6856 21.1422L56.3221 30.066C56.2403 30.203 56.091 30.2869 55.9311 30.2869H51.4064C51.2465 30.2869 51.0984 30.203 51.0154 30.066L45.6519 21.1422C45.4138 20.7465 44.806 20.9155 44.806 21.3761V35.6116C44.806 35.862 44.6022 36.0664 44.3499 36.0664H40.2209C39.9697 36.0664 39.7648 35.8632 39.7648 35.6116V10.892C39.7648 10.6416 39.9686 10.4373 40.2209 10.4373H44.543C44.7053 10.4373 44.8558 10.5235 44.9363 10.6629L53.2736 24.9622C53.449 25.2634 53.8862 25.2634 54.0615 24.9622L62.3988 10.6629C62.4806 10.5235 62.6298 10.4373 62.7922 10.4373H67.1154C67.3666 10.4373 67.5716 10.6404 67.5716 10.892V35.6116C67.5716 35.862 67.3678 36.0664 67.1154 36.0664H62.9865C62.7353 36.0664 62.5303 35.8632 62.5303 35.6116V21.3761C62.5315 20.9155 61.9225 20.7477 61.6856 21.1422Z" fill="#44C8D4"/>
<path d="M77.8282 36.0659H73.6992C73.4481 36.0659 73.2431 35.8627 73.2431 35.6111V10.8915C73.2431 10.6411 73.4469 10.4368 73.6992 10.4368H84.585C85.8172 10.4368 86.9723 10.66 88.0505 11.1065C89.1286 11.553 90.067 12.1601 90.8643 12.9279C91.6629 13.6956 92.292 14.5886 92.7541 15.6079C93.2161 16.6273 93.4472 17.7093 93.4472 18.8538C93.4472 19.9984 93.2161 21.0803 92.7541 22.0997C92.292 23.119 91.6617 24.012 90.8643 24.7798C90.0658 25.5475 89.1275 26.1546 88.0505 26.6011C86.9723 27.0476 85.8172 27.2709 84.585 27.2709H78.7405C78.4893 27.2709 78.2843 27.474 78.2843 27.7256V35.6111C78.2832 35.8627 78.0794 36.0659 77.8282 36.0659ZM84.5838 22.5816C85.6762 22.5816 86.5861 22.2261 87.3136 21.5138C88.041 20.8016 88.4059 19.9157 88.4059 18.855C88.4059 17.7943 88.0422 16.9072 87.3136 16.1962C86.5849 15.4839 85.675 15.1284 84.5838 15.1284H78.7393C78.4881 15.1284 78.2832 15.3316 78.2832 15.5831V22.1292C78.2832 22.3796 78.4869 22.584 78.7393 22.584H84.5838V22.5816Z" fill="#44C8D4"/>
<path d="M102.19 36.0659H98.0607C97.8095 36.0659 97.6046 35.8627 97.6046 35.6111V10.8915C97.6046 10.6411 97.8083 10.4368 98.0607 10.4368H102.19C102.441 10.4368 102.646 10.6399 102.646 10.8915V35.6111C102.646 35.8627 102.442 36.0659 102.19 36.0659Z" fill="#44C8D4"/>
<path d="M113.351 27.324C113.541 27.0901 113.453 26.744 113.178 26.6212C112.522 26.3282 111.91 25.9798 111.34 25.5746C110.611 25.0585 109.981 24.4584 109.45 23.7734C108.918 23.0895 108.497 22.3288 108.189 21.4913C107.881 20.6539 107.727 19.7739 107.727 18.8526C107.727 17.708 107.958 16.6261 108.42 15.6067C108.882 14.5886 109.513 13.6944 110.31 12.9266C111.109 12.1589 112.046 11.5518 113.124 11.1053C114.202 10.6588 115.357 10.4355 116.589 10.4355H127.475C127.726 10.4355 127.931 10.6387 127.931 10.8903V35.6099C127.931 35.8603 127.728 36.0646 127.475 36.0646H123.346C123.095 36.0646 122.89 35.8615 122.89 35.6099V15.5819C122.89 15.3315 122.686 15.1272 122.434 15.1272H116.589C115.581 15.1272 114.691 15.4555 113.923 16.1111C113.152 16.7678 112.767 17.7931 112.767 19.1892C112.767 20.6692 113.208 21.7158 114.091 22.33C114.972 22.9442 116.086 23.2513 117.431 23.2513H121.858C122.241 23.2513 122.453 23.6919 122.214 23.9895L112.652 35.8957C112.566 36.0032 112.436 36.0658 112.297 36.0658H107.212C106.829 36.0658 106.617 35.6229 106.858 35.3264L113.351 27.324Z" fill="#44C8D4"/>
<path d="M29.3648 52.7842C29.161 52.7842 28.9264 52.7759 28.6598 52.7594C28.3932 52.7429 28.1172 52.7169 27.8281 52.6838C27.539 52.6507 27.2511 52.6106 26.962 52.5657C26.7393 52.5314 26.532 52.4925 26.3388 52.4511C26.2417 52.4299 26.173 52.3448 26.173 52.2468V50.7703C26.173 50.6368 26.2962 50.5376 26.4265 50.566C26.5616 50.5955 26.712 50.6215 26.8779 50.6451C27.1552 50.6853 27.4466 50.7183 27.7523 50.7467C28.058 50.775 28.366 50.7975 28.6776 50.814C28.9892 50.8305 29.2747 50.84 29.5354 50.84C30.0105 50.84 30.3422 50.7916 30.5282 50.6959C30.7154 50.6002 30.8078 50.3722 30.8078 50.0108C30.8078 49.7061 30.7119 49.4864 30.5187 49.3505C30.3256 49.2147 29.9927 49.1474 29.5176 49.1474H27.3506C27.2345 49.1474 27.1409 49.0541 27.1409 48.9383V47.8174C27.1409 47.7016 27.2345 47.6083 27.3506 47.6083H29.4157C29.8458 47.6083 30.1455 47.5433 30.315 47.4134C30.4844 47.2835 30.5697 47.0721 30.5697 46.7791C30.5697 46.4862 30.4879 46.2972 30.3233 46.2122C30.1586 46.1271 29.879 46.0858 29.4832 46.0858C29.2451 46.0858 28.9762 46.094 28.6764 46.1106C28.3767 46.1271 28.0828 46.1531 27.7938 46.1862C27.5047 46.2204 27.231 46.257 26.9703 46.296C26.8305 46.3173 26.7061 46.3397 26.5948 46.3622C26.4644 46.3893 26.3412 46.2913 26.3412 46.1578V44.6766C26.3412 44.5798 26.4076 44.4947 26.5023 44.4735C26.6848 44.4321 26.8791 44.3943 27.0876 44.3589C27.3589 44.314 27.6303 44.2739 27.9028 44.2408C28.1741 44.2065 28.4406 44.1817 28.7001 44.1652C28.9608 44.1486 29.1871 44.1404 29.379 44.1404C29.8316 44.1404 30.2557 44.1888 30.6526 44.2845C31.0483 44.3802 31.3907 44.5243 31.6798 44.7156C31.9689 44.907 32.1952 45.1503 32.3587 45.4432C32.5222 45.7361 32.6051 46.081 32.6051 46.4756C32.6051 47.1512 32.3706 47.6674 31.9002 48.0229C31.7794 48.115 31.803 48.3017 31.9381 48.3713C32.194 48.5036 32.3943 48.6619 32.5376 48.845C32.7414 49.1049 32.8433 49.4875 32.8433 49.9955C32.8433 50.8754 32.5459 51.5605 31.9523 52.0519C31.3599 52.5385 30.4962 52.7842 29.3648 52.7842Z" fill="#44C8D4"/>
<path d="M33.9653 48.4352C33.9653 47.8482 34.0612 47.293 34.2544 46.7686C34.4463 46.2441 34.7295 45.787 35.1027 45.3972C35.4759 45.0086 35.9344 44.7003 36.4782 44.4747C37.0208 44.2491 37.6381 44.1357 38.3288 44.1357C38.9733 44.1357 39.5562 44.2373 40.0775 44.4405C40.5977 44.6436 41.042 44.9307 41.4104 45.3039C41.7777 45.676 42.0668 46.1307 42.2765 46.6658C42.4862 47.2021 42.6011 47.7974 42.6248 48.4518C42.6355 48.6667 42.6414 48.9289 42.6414 49.2384C42.6414 49.5491 42.658 49.8904 42.6924 50.2625C42.7267 50.6346 42.7883 51.0267 42.8795 51.4389C42.9495 51.7567 43.049 52.0756 43.1793 52.3957C43.235 52.5327 43.1343 52.6827 42.985 52.6827H41.4033C41.3204 52.6827 41.2434 52.6343 41.2102 52.5575C41.1024 52.3095 41.0135 52.0567 40.9412 51.7968C40.8962 51.6362 40.6936 51.5866 40.5823 51.7106C40.337 51.9858 40.0503 52.2138 39.7209 52.3945C39.2683 52.6426 38.7245 52.7666 38.0919 52.7666C37.4924 52.7666 36.9379 52.6544 36.4284 52.4276C35.919 52.202 35.483 51.8949 35.1216 51.5051C34.7591 51.1153 34.4771 50.6594 34.2733 50.1337C34.0695 49.6081 33.9653 49.0435 33.9653 48.4352ZM38.3276 46.0315C37.9082 46.0315 37.5528 46.0941 37.2578 46.2182C36.9639 46.3422 36.7234 46.5146 36.5362 46.7343C36.349 46.954 36.214 47.2115 36.1287 47.5044C36.0434 47.7986 36.0019 48.1139 36.0019 48.4518C36.0019 48.7896 36.0446 49.1061 36.1287 49.3991C36.214 49.6932 36.349 49.9495 36.5362 50.1692C36.7234 50.3889 36.9628 50.5613 37.2578 50.6854C37.5516 50.8094 37.9082 50.872 38.3276 50.872C39.029 50.872 39.5811 50.6771 39.9828 50.2885C40.3844 49.8999 40.5858 49.288 40.5858 48.4529C40.5515 47.7088 40.3595 47.1194 40.0088 46.6847C39.6569 46.2489 39.0965 46.0315 38.3276 46.0315Z" fill="#44C8D4"/>
<path d="M44.2172 44.9483C44.2172 44.3057 44.3214 43.7246 44.5311 43.2049C44.7408 42.6863 45.037 42.2434 45.4221 41.8761C45.8071 41.5099 46.2739 41.2217 46.8225 41.0126C47.3711 40.8035 47.9907 40.6878 48.6814 40.6654C48.8734 40.6547 49.1079 40.6488 49.3864 40.6488C49.6636 40.6488 49.9657 40.6323 50.2951 40.598C50.6233 40.5638 50.968 40.5024 51.3306 40.4114C51.5936 40.3464 51.8566 40.2531 52.1197 40.135C52.2595 40.0724 52.417 40.1716 52.417 40.324V41.7544C52.417 41.8335 52.372 41.9079 52.2997 41.9434C51.9656 42.1052 51.6303 42.2269 51.2962 42.3084C50.923 42.3993 50.5723 42.4607 50.2441 42.495C49.916 42.5292 49.6162 42.5458 49.3449 42.5458C49.0736 42.5458 48.8532 42.5517 48.6826 42.5623C47.9362 42.5966 47.3438 42.7997 46.909 43.1718C46.473 43.5439 46.255 44.1368 46.255 44.9483V45.2022C46.5488 44.8751 46.8995 44.6152 47.3071 44.4238C47.7146 44.2325 48.1957 44.1356 48.7501 44.1356C49.3496 44.1356 49.9017 44.249 50.4053 44.4746C50.9088 44.7002 51.3448 45.0073 51.7121 45.3971C52.0794 45.7857 52.3661 46.2429 52.5699 46.7685C52.7736 47.2929 52.8755 47.8599 52.8755 48.4694C52.8755 49.034 52.7843 49.5749 52.6042 50.0935C52.423 50.612 52.1481 51.0691 51.7808 51.4648C51.4135 51.8593 50.9574 52.1759 50.4148 52.4121C49.8721 52.6495 49.243 52.7677 48.5309 52.7677C47.8296 52.7677 47.2123 52.6554 46.6803 52.4287C46.1484 52.2031 45.6981 51.896 45.3309 51.5062C44.9636 51.1164 44.6863 50.6604 44.4991 50.1348C44.3119 49.6104 44.2195 49.0493 44.2195 48.4505V44.9483H44.2172ZM48.512 50.8719C48.9302 50.8719 49.2868 50.8105 49.5818 50.6852C49.8757 50.5612 50.1162 50.3888 50.3034 50.1691C50.4906 49.9494 50.6256 49.6931 50.7109 49.399C50.7962 49.106 50.8377 48.7895 50.8377 48.4517C50.8377 48.1138 50.7951 47.7973 50.7109 47.5043C50.6256 47.2114 50.4906 46.9539 50.3034 46.7342C50.1162 46.5145 49.8757 46.3421 49.5818 46.2181C49.288 46.094 48.9314 46.0314 48.512 46.0314C47.8106 46.0314 47.2585 46.2263 46.8569 46.6149C46.4552 47.0035 46.2538 47.6166 46.2538 48.4505C46.2538 49.2856 46.454 49.8974 46.8569 50.286C47.2585 50.677 47.8106 50.8719 48.512 50.8719Z" fill="#44C8D4"/>
<path d="M58.3066 50.872C59.0305 50.872 59.5802 50.6464 59.9534 50.1952C60.3266 49.744 60.5138 49.1628 60.5138 48.4518V44.4299C60.5138 44.3141 60.6074 44.2208 60.7235 44.2208H62.3407C62.4568 44.2208 62.5504 44.3141 62.5504 44.4299V52.2421C62.5504 52.8398 62.4545 53.4044 62.2613 53.9348C62.0694 54.4651 61.7862 54.9246 61.413 55.3144C61.0398 55.703 60.5813 56.0113 60.0387 56.2369C59.4961 56.4625 58.8729 56.5759 58.1715 56.5759C57.7071 56.5759 57.2462 56.5452 56.7877 56.4826C56.3896 56.4282 56.027 56.3514 55.7012 56.2499C55.6147 56.2227 55.5567 56.1412 55.5567 56.0503V54.4462C55.5567 54.2986 55.7048 54.197 55.8422 54.2513C56.0827 54.347 56.3635 54.4238 56.6858 54.484C57.1443 54.5691 57.6052 54.6104 58.0696 54.6104C58.534 54.6104 58.9215 54.5478 59.2319 54.4238C59.5435 54.2998 59.7946 54.1308 59.9878 53.9159C60.1797 53.7009 60.3159 53.4505 60.3953 53.1623C60.4747 52.8741 60.5138 52.5611 60.5138 52.2232C60.5138 52.0437 60.3053 51.9516 60.1667 52.065C59.9569 52.2374 59.7283 52.3803 59.4783 52.4937C59.0826 52.6745 58.6181 52.7642 58.0862 52.7642C57.5092 52.7642 56.9832 52.652 56.5081 52.4252C56.033 52.1996 55.6254 51.8925 55.2854 51.5027C54.9453 51.1129 54.6859 50.657 54.5046 50.1314C54.3233 49.6069 54.2333 49.0459 54.2333 48.447V44.4251C54.2333 44.3094 54.3269 44.2161 54.443 44.2161H56.0602C56.1763 44.2161 56.2699 44.3094 56.2699 44.4251V48.447C56.2699 49.1687 56.4287 49.7534 56.745 50.1987C57.0613 50.6487 57.5827 50.872 58.3066 50.872Z" fill="#44C8D4"/>
<path d="M63.8573 54.8418V51.1483C63.8573 51.0325 63.9509 50.9392 64.067 50.9392H64.6772C64.7577 50.9392 64.8312 50.8943 64.8655 50.8223C65.1203 50.2884 65.3217 49.6222 65.4698 48.8237C65.6286 47.9662 65.7127 46.9055 65.7245 45.6417V44.4298C65.7245 44.314 65.8181 44.2207 65.9342 44.2207H71.71C71.8261 44.2207 71.9197 44.314 71.9197 44.4298V50.7302C71.9197 50.8459 72.0133 50.9392 72.1294 50.9392H72.9315C73.0476 50.9392 73.1412 51.0325 73.1412 51.1483V54.8418C73.1412 54.9576 73.0476 55.0509 72.9315 55.0509H71.383C71.2669 55.0509 71.1733 54.9576 71.1733 54.8418V52.8905C71.1733 52.7748 71.0797 52.6815 70.9636 52.6815H66.0705C65.9544 52.6815 65.8608 52.7748 65.8608 52.8905V54.8418C65.8608 54.9576 65.7672 55.0509 65.6511 55.0509H64.0682C63.9509 55.0521 63.8573 54.9576 63.8573 54.8418ZM69.8831 50.7302V46.1732C69.8831 46.0574 69.7895 45.9641 69.6734 45.9641H67.8003C67.6853 45.9641 67.5917 46.0574 67.5905 46.1732C67.5834 47.0945 67.5301 47.9308 67.4306 48.6808C67.337 49.386 67.1972 50.051 67.0124 50.6735C66.9733 50.8069 67.0752 50.9392 67.2138 50.9392H69.6734C69.7895 50.9392 69.8831 50.8459 69.8831 50.7302Z" fill="#44C8D4"/>
<path d="M74.076 48.4518C74.076 47.8541 74.172 47.293 74.3651 46.7686C74.557 46.2441 74.8402 45.787 75.2134 45.3972C75.5866 45.0086 76.0427 44.7003 76.5794 44.4747C77.1173 44.2491 77.7251 44.1357 78.404 44.1357C79.0829 44.1357 79.6907 44.2491 80.2285 44.4747C80.7664 44.7003 81.2214 45.0074 81.5946 45.3972C81.9678 45.787 82.251 46.243 82.4429 46.7686C82.6348 47.293 82.732 47.8541 82.732 48.4518C82.732 49.0494 82.636 49.6105 82.4429 50.1361C82.251 50.6605 81.9678 51.1177 81.5946 51.5074C81.2214 51.8961 80.7652 52.2043 80.2285 52.4299C79.6907 52.6555 79.0829 52.7689 78.404 52.7689C77.7251 52.7689 77.1161 52.6567 76.5794 52.4299C76.0415 52.2043 75.5866 51.8972 75.2134 51.5074C74.8402 51.1177 74.557 50.6617 74.3651 50.1361C74.172 49.6105 74.076 49.0494 74.076 48.4518ZM76.1126 48.4518C76.1126 48.7907 76.1553 49.1061 76.2394 49.3991C76.3247 49.6932 76.4598 49.9495 76.647 50.1692C76.8342 50.3889 77.0711 50.5613 77.3602 50.6853C77.6493 50.8094 77.9964 50.872 78.404 50.872C78.8116 50.872 79.1599 50.8106 79.4478 50.6853C79.7369 50.5613 79.9738 50.3889 80.161 50.1692C80.3482 49.9495 80.4833 49.6932 80.5686 49.3991C80.6539 49.1061 80.6953 48.7896 80.6953 48.4518C80.6953 48.1139 80.6527 47.7974 80.5686 47.5044C80.4833 47.2115 80.3482 46.954 80.161 46.7343C79.9738 46.5146 79.7369 46.3422 79.4478 46.2182C79.1587 46.0941 78.8116 46.0315 78.404 46.0315C77.9964 46.0315 77.6481 46.0941 77.3602 46.2182C77.0711 46.3422 76.8342 46.5146 76.647 46.7343C76.4598 46.954 76.3247 47.2115 76.2394 47.5044C76.1553 47.7974 76.1126 48.1128 76.1126 48.4518Z" fill="#44C8D4"/>
<path d="M84.277 52.4736V44.431C84.277 44.3152 84.3706 44.2219 84.4867 44.2219H88.2318C89.2507 44.2219 90.0113 44.4026 90.5148 44.7629C91.0184 45.1243 91.2707 45.6937 91.2707 46.4721C91.2707 47.1477 91.035 47.6639 90.5646 48.0194C90.4437 48.1104 90.4663 48.2982 90.6013 48.3678C90.8584 48.5013 91.0586 48.662 91.202 48.8498C91.4058 49.1155 91.5077 49.5018 91.5077 50.0085C91.5077 50.8778 91.2411 51.5405 90.7103 51.9964C90.1784 52.4535 89.3751 52.6815 88.3005 52.6815H84.4879C84.3718 52.6827 84.277 52.5882 84.277 52.4736ZM86.3148 47.3957C86.3148 47.5115 86.4084 47.6048 86.5245 47.6048H88.0801C88.5102 47.6048 88.8099 47.5398 88.9794 47.4099C89.1488 47.28 89.2341 47.0686 89.2341 46.7756C89.2341 46.4827 89.1523 46.2677 88.9877 46.1331C88.823 45.9972 88.5434 45.9299 88.1476 45.9299H86.5245C86.4084 45.9299 86.3148 46.0232 86.3148 46.139V47.3957ZM86.3148 50.7633C86.3148 50.879 86.4084 50.9723 86.5245 50.9723H88.1654C88.6405 50.9723 88.977 50.905 89.1748 50.7692C89.3727 50.6333 89.4722 50.403 89.4722 50.0758C89.4722 49.7486 89.3763 49.5112 89.1831 49.3648C88.9912 49.2183 88.6571 49.1451 88.182 49.1451H86.5245C86.4084 49.1451 86.3148 49.2384 86.3148 49.3541V50.7633Z" fill="#44C8D4"/>
<path d="M94.9483 52.6827H93.331C93.2149 52.6827 93.1213 52.5894 93.1213 52.4736V44.431C93.1213 44.3152 93.2149 44.2219 93.331 44.2219H94.9483C95.0644 44.2219 95.158 44.3152 95.158 44.431V47.3119C95.158 47.4276 95.2516 47.5209 95.3677 47.5209H98.6827C98.7988 47.5209 98.8924 47.4276 98.8924 47.3119V44.431C98.8924 44.3152 98.986 44.2219 99.1021 44.2219H100.719C100.835 44.2219 100.929 44.3152 100.929 44.431V52.4736C100.929 52.5894 100.835 52.6827 100.719 52.6827H99.1021C98.986 52.6827 98.8924 52.5894 98.8924 52.4736V49.5915C98.8924 49.4758 98.7988 49.3825 98.6827 49.3825H95.3677C95.2516 49.3825 95.158 49.4758 95.158 49.5915V52.4736C95.158 52.5882 95.0644 52.6827 94.9483 52.6827Z" fill="#44C8D4"/>
<path d="M104.893 52.6826H103.177C103.06 52.6826 102.967 52.5893 102.967 52.4736V44.431C102.967 44.3152 103.06 44.2219 103.177 44.2219H104.794C104.91 44.2219 105.003 44.3152 105.003 44.431V48.9631C105.003 49.1686 105.27 49.2513 105.386 49.0812L108.675 44.3117C108.714 44.255 108.779 44.2207 108.848 44.2207H110.565C110.681 44.2207 110.775 44.314 110.775 44.4298V52.4724C110.775 52.5881 110.681 52.6814 110.565 52.6814H108.948C108.832 52.6814 108.738 52.5881 108.738 52.4724V47.9402C108.738 47.7347 108.471 47.652 108.355 47.8221L105.066 52.5917C105.026 52.6484 104.962 52.6826 104.893 52.6826Z" fill="#44C8D4"/>
<path d="M114.638 52.6826H113.021C112.905 52.6826 112.811 52.5893 112.811 52.4736V44.431C112.811 44.3152 112.905 44.2219 113.021 44.2219H114.638C114.754 44.2219 114.848 44.3152 114.848 44.431V52.4736C114.848 52.5881 114.754 52.6826 114.638 52.6826ZM114.982 48.3241L118.095 44.3022C118.136 44.2514 118.196 44.2207 118.261 44.2207H120.09C120.265 44.2207 120.363 44.4203 120.256 44.5573L117.341 48.3229C117.283 48.3985 117.283 48.5036 117.341 48.5781L120.256 52.3436C120.363 52.4806 120.265 52.6803 120.09 52.6803H118.261C118.196 52.6803 118.134 52.6507 118.095 52.5988L114.982 48.5769C114.922 48.5036 114.922 48.3985 114.982 48.3241Z" fill="#44C8D4"/>
<path d="M120.773 48.4352C120.773 47.8482 120.869 47.293 121.062 46.7686C121.254 46.2441 121.537 45.787 121.91 45.3972C122.284 45.0086 122.742 44.7003 123.286 44.4747C123.828 44.2491 124.446 44.1357 125.136 44.1357C125.781 44.1357 126.364 44.2373 126.885 44.4405C127.405 44.6436 127.85 44.9307 128.218 45.3039C128.585 45.676 128.874 46.1307 129.084 46.6658C129.294 47.2021 129.409 47.7974 129.433 48.4518C129.443 48.6667 129.449 48.9289 129.449 49.2384C129.449 49.5491 129.466 49.8904 129.5 50.2625C129.534 50.6346 129.596 51.0267 129.687 51.4389C129.757 51.7567 129.857 52.0756 129.987 52.3957C130.043 52.5327 129.942 52.6827 129.793 52.6827H128.211C128.128 52.6827 128.051 52.6343 128.018 52.5575C127.91 52.3095 127.821 52.0567 127.749 51.7968C127.704 51.6362 127.501 51.5866 127.39 51.7106C127.145 51.9858 126.858 52.2138 126.529 52.3945C126.076 52.6426 125.532 52.7666 124.9 52.7666C124.3 52.7666 123.746 52.6544 123.236 52.4276C122.727 52.202 122.291 51.8949 121.929 51.5051C121.567 51.1153 121.285 50.6594 121.081 50.1337C120.877 49.6081 120.773 49.0435 120.773 48.4352ZM125.135 46.0315C124.716 46.0315 124.36 46.0941 124.065 46.2182C123.772 46.3422 123.531 46.5146 123.344 46.7343C123.157 46.954 123.022 47.2115 122.936 47.5044C122.851 47.7986 122.81 48.1139 122.81 48.4518C122.81 48.7896 122.852 49.1061 122.936 49.3991C123.022 49.6932 123.157 49.9495 123.344 50.1692C123.531 50.3889 123.77 50.5613 124.065 50.6854C124.359 50.8094 124.716 50.872 125.135 50.872C125.837 50.872 126.389 50.6771 126.79 50.2885C127.192 49.8999 127.394 49.288 127.394 48.4529C127.359 47.7088 127.167 47.1194 126.817 46.6847C126.465 46.2489 125.904 46.0315 125.135 46.0315Z" fill="#44C8D4"/>
</g>
<defs>
<clipPath id="clip0">
<rect width="130" height="65" fill="white"/>
</clipPath>
</defs>
</svg>
